<?xml version="1.0" ?><!-- Uploaded to: SVG Repo, www.svgrepo.com, Generator: SVG Repo Mixer Tools -->
<svg fill="#000000" width="800px" height="800px" viewBox="0 0 24 24" data-name="Layer 1" id="Layer_1" xmlns="http://www.w3.org/2000/svg"><title/><path d="M20,15a5,5,0,0,0-6-4.9V2H2V18h9a5,5,0,0,0,6.73,1.17l3.54,3.54,1.41-1.41-3.54-3.54A5,5,0,0,0,20,15ZM4,16V4h8v7a5,5,0,0,0-1,1v0H5v4Zm3,0V14H9v2Zm5-1a3,3,0,1,1,3,3A3,3,0,0,1,12,15Z"/><rect height="2" width="2" x="5" y="9"/><rect height="2" width="2" x="9" y="9"/><rect height="2" width="2" x="5" y="6"/><rect height="2" width="2" x="9" y="6"/></svg>